<?xml version="1.0" encoding="UTF-8" standalone="no"?>
<svg
   xmlns:dc="http://purl.org/dc/elements/1.1/"
   xmlns:cc="http://creativecommons.org/ns#"
   xmlns:rdf="http://www.w3.org/1999/02/22-rdf-syntax-ns#"
   xmlns:svg="http://www.w3.org/2000/svg"
   xmlns="http://www.w3.org/2000/svg"
   xmlns:sodipodi="http://sodipodi.sourceforge.net/DTD/sodipodi-0.dtd"
   xmlns:inkscape="http://www.inkscape.org/namespaces/inkscape"
   height="512pt"
   viewBox="0 0 512.0015 512"
   width="512pt"
   version="1.1"
   id="svg6"
   sodipodi:docname="incoming.svg"
   inkscape:version="0.92.5 (2060ec1f9f, 2020-04-08)">
  <metadata
     id="metadata12">
    <rdf:RDF>
      <cc:Work
         rdf:about="">
        <dc:format>image/svg+xml</dc:format>
        <dc:type
           rdf:resource="http://purl.org/dc/dcmitype/StillImage" />
      </cc:Work>
    </rdf:RDF>
  </metadata>
  <defs
     id="defs10" />
  <sodipodi:namedview
     pagecolor="#ffffff"
     bordercolor="#666666"
     borderopacity="1"
     objecttolerance="10"
     gridtolerance="10"
     guidetolerance="10"
     inkscape:pageopacity="0"
     inkscape:pageshadow="2"
     inkscape:window-width="1366"
     inkscape:window-height="649"
     id="namedview8"
     showgrid="false"
     inkscape:zoom="0.34570313"
     inkscape:cx="341.33333"
     inkscape:cy="341.33333"
     inkscape:window-x="0"
     inkscape:window-y="28"
     inkscape:window-maximized="1"
     inkscape:current-layer="svg6" />
  <path
     d="m505.253906 386.042969c-.109375-.179688-.230468-.355469-.355468-.527344-1.539063-2.308594-3.304688-4.488281-5.300782-6.488281l-71.882812-71.882813c-16.101563-16.101562-41.847656-16.636719-58.613282-1.222656l-43.738281 40.230469c-6.234375 5.738281-15.691406 6.289062-22.492187 1.3125-53.03125-38.796875-99.574219-85.339844-138.335938-138.335938-4.976562-6.796875-4.421875-16.257812 1.316406-22.492187l40.230469-43.738281c15.414063-16.765626 14.875-42.511719-1.226562-58.609376l-71.878907-71.882812c-8.839843-8.839844-21.050781-13.304688-33.503906-12.253906-12.460937 1.050781-23.753906 7.503906-30.992187 17.707031l-46.453125 65.554687c-15.199219 21.445313-22.796875 46.675782-21.964844 72.960938.828125 26.273438 9.992188 50.984375 26.496094 71.46875 3.3125 4.105469 6.367187 7.859375 9.347656 11.476562 2.671875 3.238282 7.464844 3.703126 10.703125 1.035157 3.242187-2.671875 3.707031-7.464844 1.035156-10.703125-2.945312-3.578125-5.96875-7.292969-9.246093-11.355469-14.410157-17.882813-22.414063-39.460937-23.136719-62.402344-.722657-22.945312 5.90625-44.96875 19.171875-63.6875l24.878906-35.105469 106.796875 106.796876-11.449219 12.445312c-10.640625 11.5625-11.648437 29.128906-2.398437 41.765625 39.683593 54.257813 87.335937 101.910156 141.628906 141.628906 12.640625 9.253907 30.207031 8.246094 41.769531-2.394531l12.445313-11.445312 106.796875 106.792968-35.105469 24.878906c-18.722656 13.261719-40.738281 19.894532-63.691406 19.167969-22.941407-.722656-44.519531-8.722656-62.398438-23.132812-82.175781-66.21875-158.433593-140.46875-226.648437-220.695313-2.722656-3.199218-7.519532-3.585937-10.71875-.867187-3.199219 2.722656-3.589844 7.519531-.867188 10.71875 68.832032 80.949219 145.777344 155.871093 228.691406 222.683593 20.476563 16.503907 45.191407 25.667969 71.460938 26.496094 1.296875.039063 2.589844.058594 3.878906.058594 24.878906 0 48.691406-7.574219 69.085938-22.023438l65.558594-46.453124c10.195312-7.230469 16.648437-18.519532 17.703124-30.976563.792969-9.429687-1.574218-18.710937-6.597656-26.503906zm-437.023437-341.527344 12.65625-17.859375c4.640625-6.539062 11.878906-10.675781 19.863281-11.347656 7.980469-.675782 15.808594 2.1875 21.472656 7.851562l18.582032 18.582032-6.113282 6.113281c-2.96875 2.972656-2.96875 7.785156 0 10.753906 1.484375 1.484375 3.429688 2.230469 5.375 2.230469 1.945313 0 3.894532-.742188 5.378906-2.230469l6.113282-6.113281 13.207031 13.207031-6.113281 6.117187c-2.96875 2.96875-2.96875 7.78125 0 10.75 1.484375 1.488282 3.429687 2.230469 5.375 2.230469 1.945312 0 3.894531-.742187 5.378906-2.230469l6.113281-6.113281 18.585938 18.585938c10.316406 10.316406 10.664062 26.820312.785156 37.5625l-18.480469 20.089843zm428.464843 366.746094c-.675781 7.984375-4.8125 15.21875-11.34375 19.851562l-17.863281 12.660157-108.179687-108.183594 20.085937-18.476563c10.644531-9.78125 26.929688-9.53125 37.265625.496094l-6.636718 6.636719c-2.96875 2.96875-2.96875 7.78125 0 10.75 1.484374 1.484375 3.433593 2.230468 5.378906 2.230468 1.945312 0 3.890625-.742187 5.375-2.230468l6.640625-6.640625 13.207031 13.207031-6.640625 6.640625c-2.96875 2.96875-2.96875 7.785156 0 10.753906 1.484375 1.484375 3.429687 2.226563 5.375 2.226563s3.894531-.742188 5.378906-2.226563l6.640625-6.640625 13.207032 13.207032-6.640626 6.640624c-2.96875 2.96875-2.96875 7.785157 0 10.753907 1.484376 1.484375 3.429688 2.226562 5.375 2.226562 1.945313 0 3.894532-.742187 5.378907-2.226562l6.640625-6.640625 13.207031 13.207031-6.640625 6.640625c-2.972656 2.96875-2.972656 7.78125 0 10.75 1.480469 1.488281 3.429688 2.230469 5.375 2.230469s3.890625-.742188 5.375-2.230469l3.539062-3.535156c.542969 2.574218.726563 5.238281.5 7.921875zm0 0"
     id="path2" />
  <path
     d="m260.464844 261.117188c.085937 0 .175781 0 .261718-.003907l141.34375-4.894531c3.023438-.105469 5.699219-1.996094 6.808594-4.8125 1.113282-2.816406.445313-6.023438-1.695312-8.164062l-25.992188-25.992188 57.734375-57.738281c2.972657-2.96875 2.972657-7.78125 0-10.75-2.96875-2.972657-7.78125-2.972657-10.75 0l-63.113281 63.109375c-2.96875 2.972656-2.96875 7.785156 0 10.753906l18.996094 19-115.710938 4.007812 4.007813-115.710937 19 18.996094c2.96875 2.972656 7.78125 2.972656 10.75 0l101.617187-101.613281 62.953125 62.953124-17.039062 17.039063c-2.96875 2.96875-2.96875 7.785156 0 10.753906s7.785156 2.96875 10.753906 0l22.414063-22.417969c2.96875-2.96875 2.96875-7.78125 0-10.753906l-73.707032-73.707031c-1.425781-1.425781-3.359375-2.226563-5.375-2.226563s-3.953125.800782-5.378906 2.226563l-101.613281 101.617187-25.992188-25.992187c-2.140625-2.140625-5.347656-2.808594-8.164062-1.699219-2.816407 1.109375-4.707031 3.785156-4.8125 6.8125l-4.898438 141.339844c-.070312 2.109375.734375 4.152344 2.222657 5.640625 1.429687 1.429687 3.363281 2.226563 5.378906 2.226563zm0 0"
     id="path4"
     style="fill:#ffc400;fill-opacity:1" />
</svg>
