<?xml version="1.0" encoding="UTF-8" standalone="no"?>
<!-- Created with Inkscape (http://www.inkscape.org/) -->

<svg
   xmlns:dc="http://purl.org/dc/elements/1.1/"
   xmlns:cc="http://creativecommons.org/ns#"
   xmlns:rdf="http://www.w3.org/1999/02/22-rdf-syntax-ns#"
   xmlns:svg="http://www.w3.org/2000/svg"
   xmlns="http://www.w3.org/2000/svg"
   xmlns:sodipodi="http://sodipodi.sourceforge.net/DTD/sodipodi-0.dtd"
   xmlns:inkscape="http://www.inkscape.org/namespaces/inkscape"
   width="500"
   height="200"
   viewBox="0 0 132.29166 52.916668"
   version="1.1"
   id="svg993"
   inkscape:version="0.92.5 (2060ec1f9f, 2020-04-08)"
   sodipodi:docname="logo.svg">
  <defs
     id="defs987" />
  <sodipodi:namedview
     id="base"
     pagecolor="#ffffff"
     bordercolor="#666666"
     borderopacity="1.0"
     inkscape:pageopacity="0.0"
     inkscape:pageshadow="2"
     inkscape:zoom="0.7"
     inkscape:cx="147.8328"
     inkscape:cy="256.47753"
     inkscape:document-units="mm"
     inkscape:current-layer="text1559"
     showgrid="false"
     units="px"
     inkscape:window-width="1366"
     inkscape:window-height="649"
     inkscape:window-x="0"
     inkscape:window-y="28"
     inkscape:window-maximized="1" />
  <metadata
     id="metadata990">
    <rdf:RDF>
      <cc:Work
         rdf:about="">
        <dc:format>image/svg+xml</dc:format>
        <dc:type
           rdf:resource="http://purl.org/dc/dcmitype/StillImage" />
        <dc:title></dc:title>
      </cc:Work>
    </rdf:RDF>
  </metadata>
  <g
     inkscape:label="Layer 1"
     inkscape:groupmode="layer"
     id="layer1"
     transform="translate(0,-244.08332)">
    <g
       id="g1548"
       transform="matrix(0.77437828,0,0,0.77437828,-2.6658565,92.514888)">
      <path
         inkscape:connector-curvature="0"
         id="path96"
         style="fill:#100f0d;fill-opacity:1;fill-rule:nonzero;stroke:none;stroke-width:0.03527778"
         d="m 21.93726,247.39986 c -0.112889,0 -0.225425,-0.0427 -0.311503,-0.12877 L 6.7431207,232.38846 c -0.172155,-0.17251 -0.172155,-0.45156 0,-0.62371 l 14.8530033,-14.853 c 0.1651,-0.16546 0.457906,-0.16546 0.623358,0 l 8.773583,8.77393 c 0.172509,0.17216 0.172509,0.4512 0,0.62336 -0.172155,0.17251 -0.451202,0.17251 -0.623358,0 l -8.46208,-8.46173 -14.2292923,14.22965 14.2589253,14.25857 14.22929,-14.22894 -1.805162,-1.80516 c -0.172156,-0.17251 -0.172156,-0.45156 0,-0.62372 0.172154,-0.17215 0.451202,-0.17215 0.623711,0 l 2.117018,2.11667 c 0.172157,0.17216 0.172157,0.4512 0,0.62371 l -14.853001,14.853 c -0.08608,0.0861 -0.198614,0.12877 -0.311856,0.12877" />
      <path
         inkscape:connector-curvature="0"
         id="path98"
         style="fill:#100f0d;fill-opacity:1;fill-rule:nonzero;stroke:none;stroke-width:0.03527778"
         d="m 21.93726,242.65817 c -0.116769,0 -0.228953,-0.0462 -0.311503,-0.12876 l -10.95763,-10.95763 c -0.172156,-0.17216 -0.172156,-0.4512 0,-0.62336 0.172155,-0.17251 0.451203,-0.17251 0.623711,0 L 21.93726,241.59384 36.16655,227.3642 21.907627,213.10563 7.6783347,227.33456 l 1.792111,1.79282 c 0.172509,0.17216 0.172509,0.4512 0,0.62336 -0.172155,0.17216 -0.451203,0.17216 -0.623358,0 l -2.103967,-2.10432 c -0.172155,-0.17216 -0.172155,-0.4512 0,-0.62336 L 21.596124,212.16971 c 0.172156,-0.17216 0.451203,-0.17216 0.623358,0 l 14.882635,14.88299 c 0.172157,0.17215 0.172157,0.4512 0,0.62335 l -14.853001,14.85336 c -0.08255,0.0825 -0.195086,0.12876 -0.311856,0.12876" />
    </g>
    <rect
       style="opacity:1;fill:#000000;fill-opacity:1;fill-rule:nonzero;stroke:none;stroke-width:0.35176829;stroke-linecap:round;stroke-miterlimit:4;stroke-dasharray:none;stroke-opacity:1"
       id="rect1555"
       width="0.708583"
       height="30.266464"
       x="37.076427"
       y="256.93414" />
    <g
       aria-label="Ricocall"
       style="font-style:normal;font-variant:normal;font-weight:600;font-stretch:normal;font-size:21.37775612px;line-height:1.25;font-family:Montserrat;-inkscape-font-specification:'Montserrat, Semi-Bold';font-variant-ligatures:normal;font-variant-caps:normal;font-variant-numeric:normal;font-feature-settings:normal;text-align:start;letter-spacing:0px;word-spacing:0px;writing-mode:lr-tb;text-anchor:start;fill:#000000;fill-opacity:1;stroke:none;stroke-width:0.40083292"
       id="text1559">
      <path
         d="m 57.177452,278.69763 -3.05702,-4.38244 q -0.192399,0.0214 -0.577199,0.0214 h -3.377685 v 4.36106 H 47.386439 V 263.7332 h 6.156794 q 1.945376,0 3.377686,0.64134 1.453687,0.64133 2.223286,1.83848 0.769599,1.19716 0.769599,2.84324 0,1.68885 -0.833732,2.90738 -0.812355,1.21853 -2.351553,1.81711 l 3.441818,4.91688 z m -0.06413,-9.64137 q 0,-1.43231 -0.940621,-2.20191 -0.940621,-0.76959 -2.75773,-0.76959 h -3.249419 v 5.96439 h 3.249419 q 1.817109,0 2.75773,-0.7696 0.940621,-0.79098 0.940621,-2.22329 z"
         style="font-style:normal;font-variant:normal;font-weight:600;font-stretch:normal;font-size:21.37775612px;font-family:Montserrat;-inkscape-font-specification:'Montserrat, Semi-Bold';font-variant-ligatures:normal;font-variant-caps:normal;font-variant-numeric:normal;font-feature-settings:normal;text-align:start;writing-mode:lr-tb;text-anchor:start;stroke-width:0.40083292"
         id="path827" />
      <path
         d="m 62.757024,267.28191 h 2.67222 v 11.41572 h -2.67222 z m 1.346799,-1.88124 q -0.726844,0 -1.218532,-0.44894 -0.491689,-0.47031 -0.491689,-1.15439 0,-0.68409 0.491689,-1.13303 0.491688,-0.47031 1.218532,-0.47031 0.726844,0 1.218532,0.44894 0.491688,0.42755 0.491688,1.09026 0,0.70547 -0.491688,1.19716 -0.470311,0.47031 -1.218532,0.47031 z"
         style="font-style:normal;font-variant:normal;font-weight:600;font-stretch:normal;font-size:21.37775612px;font-family:Montserrat;-inkscape-font-specification:'Montserrat, Semi-Bold';font-variant-ligatures:normal;font-variant-caps:normal;font-variant-numeric:normal;font-feature-settings:normal;text-align:start;writing-mode:lr-tb;text-anchor:start;stroke-width:0.40083292"
         id="path829" />
      <path
         d="m 74.172737,278.84728 q -1.774354,0 -3.185285,-0.74823 -1.410932,-0.74822 -2.201909,-2.07364 -0.790977,-1.3468 -0.790977,-3.03564 0,-1.68884 0.790977,-3.01426 0.790977,-1.32542 2.180531,-2.07365 1.410932,-0.74822 3.206663,-0.74822 1.688843,0 2.950131,0.68409 1.282665,0.68409 1.923998,1.96676 l -2.052265,1.19715 q -0.491688,-0.79098 -1.23991,-1.17578 -0.726844,-0.40617 -1.603332,-0.40617 -1.496443,0 -2.479819,0.98337 -0.983377,0.962 -0.983377,2.58671 0,1.62471 0.961999,2.60809 0.983377,0.962 2.501197,0.962 0.876488,0 1.603332,-0.3848 0.748222,-0.40618 1.23991,-1.19716 l 2.052265,1.19716 q -0.662711,1.28266 -1.945376,1.98813 -1.261288,0.68409 -2.928753,0.68409 z"
         style="font-style:normal;font-variant:normal;font-weight:600;font-stretch:normal;font-size:21.37775612px;font-family:Montserrat;-inkscape-font-specification:'Montserrat, Semi-Bold';font-variant-ligatures:normal;font-variant-caps:normal;font-variant-numeric:normal;font-feature-settings:normal;text-align:start;writing-mode:lr-tb;text-anchor:start;stroke-width:0.40083292"
         id="path831" />
      <path
         d="m 86.315259,278.84728 q -1.731598,0 -3.121152,-0.74823 -1.389555,-0.74822 -2.180531,-2.07364 -0.7696,-1.3468 -0.7696,-3.03564 0,-1.68884 0.7696,-3.01426 0.790976,-1.32542 2.180531,-2.07365 1.389554,-0.74822 3.121152,-0.74822 1.752976,0 3.14253,0.74822 1.389554,0.74823 2.159154,2.07365 0.790977,1.32542 0.790977,3.01426 0,1.68884 -0.790977,3.03564 -0.7696,1.32542 -2.159154,2.07364 -1.389554,0.74823 -3.14253,0.74823 z m 0,-2.28742 q 1.475065,0 2.437064,-0.98338 0.961999,-0.98338 0.961999,-2.58671 0,-1.60333 -0.961999,-2.58671 -0.961999,-0.98337 -2.437064,-0.98337 -1.475065,0 -2.437064,0.98337 -0.940621,0.98338 -0.940621,2.58671 0,1.60333 0.940621,2.58671 0.961999,0.98338 2.437064,0.98338 z"
         style="font-style:normal;font-variant:normal;font-weight:600;font-stretch:normal;font-size:21.37775612px;font-family:Montserrat;-inkscape-font-specification:'Montserrat, Semi-Bold';font-variant-ligatures:normal;font-variant-caps:normal;font-variant-numeric:normal;font-feature-settings:normal;text-align:start;writing-mode:lr-tb;text-anchor:start;stroke-width:0.40083292"
         id="path833" />
      <path
         d="m 100.21077,278.84728 q -1.774352,0 -3.185284,-0.74823 -1.410932,-0.74822 -2.201909,-2.07364 -0.790977,-1.3468 -0.790977,-3.03564 0,-1.68884 0.790977,-3.01426 0.790977,-1.32542 2.180531,-2.07365 1.410932,-0.74822 3.206662,-0.74822 1.68884,0 2.95013,0.68409 1.28267,0.68409 1.924,1.96676 l -2.05226,1.19715 q -0.49169,-0.79098 -1.23991,-1.17578 -0.72685,-0.40617 -1.60334,-0.40617 -1.496439,0 -2.479816,0.98337 -0.983377,0.962 -0.983377,2.58671 0,1.62471 0.961999,2.60809 0.983377,0.962 2.501194,0.962 0.87649,0 1.60334,-0.3848 0.74822,-0.40618 1.23991,-1.19716 l 2.05226,1.19716 q -0.66271,1.28266 -1.94538,1.98813 -1.26128,0.68409 -2.92875,0.68409 z"
         style="font-style:normal;font-variant:normal;font-weight:600;font-stretch:normal;font-size:21.37775612px;font-family:Montserrat;-inkscape-font-specification:'Montserrat, Semi-Bold';font-variant-ligatures:normal;font-variant-caps:normal;font-variant-numeric:normal;font-feature-settings:normal;text-align:start;writing-mode:lr-tb;text-anchor:start;stroke-width:0.40083292"
         id="path835" />
      <path
         d="m 111.75475,267.15364 q 2.52257,0 3.84799,1.21854 1.3468,1.19715 1.3468,3.63421 v 6.69124 h -2.52257 v -1.38955 q -0.49169,0.74822 -1.41094,1.1544 -0.89786,0.3848 -2.18053,0.3848 -1.28266,0 -2.24466,-0.42756 -0.962,-0.44893 -1.49644,-1.21853 -0.51307,-0.79098 -0.51307,-1.77435 0,-1.5392 1.13302,-2.45845 1.1544,-0.94062 3.61284,-0.94062 h 2.95013 v -0.17102 q 0,-1.19715 -0.72684,-1.83849 -0.70547,-0.64133 -2.1164,-0.64133 -0.962,0 -1.90262,0.29929 -0.91924,0.29929 -1.56058,0.83373 l -1.04751,-1.94537 q 0.89787,-0.68409 2.15916,-1.04751 1.26129,-0.36343 2.67222,-0.36343 z m -0.36342,9.74826 q 1.00475,0 1.77435,-0.44893 0.79098,-0.47031 1.11164,-1.32542 v -1.32542 h -2.75773 q -2.3088,0 -2.3088,1.51782 0,0.72684 0.5772,1.1544 0.5772,0.42755 1.60334,0.42755 z"
         style="font-style:normal;font-variant:normal;font-weight:600;font-stretch:normal;font-size:21.37775612px;font-family:Montserrat;-inkscape-font-specification:'Montserrat, Semi-Bold';font-variant-ligatures:normal;font-variant-caps:normal;font-variant-numeric:normal;font-feature-settings:normal;text-align:start;writing-mode:lr-tb;text-anchor:start;stroke-width:0.40083292"
         id="path837" />
      <path
         d="m 120.36995,262.83534 h 2.67222 v 15.86229 h -2.67222 z"
         style="font-style:normal;font-variant:normal;font-weight:600;font-stretch:normal;font-size:21.37775612px;font-family:Montserrat;-inkscape-font-specification:'Montserrat, Semi-Bold';font-variant-ligatures:normal;font-variant-caps:normal;font-variant-numeric:normal;font-feature-settings:normal;text-align:start;writing-mode:lr-tb;text-anchor:start;stroke-width:0.40083292"
         id="path839" />
      <path
         d="m 126.54811,262.83534 h 2.67222 v 15.86229 h -2.67222 z"
         style="font-style:normal;font-variant:normal;font-weight:600;font-stretch:normal;font-size:21.37775612px;font-family:Montserrat;-inkscape-font-specification:'Montserrat, Semi-Bold';font-variant-ligatures:normal;font-variant-caps:normal;font-variant-numeric:normal;font-feature-settings:normal;text-align:start;writing-mode:lr-tb;text-anchor:start;stroke-width:0.40083292"
         id="path841" />
    </g>
  </g>
</svg>
