<?xml version="1.0" encoding="UTF-8" standalone="no"?>
<svg
   xmlns:dc="http://purl.org/dc/elements/1.1/"
   xmlns:cc="http://creativecommons.org/ns#"
   xmlns:rdf="http://www.w3.org/1999/02/22-rdf-syntax-ns#"
   xmlns:svg="http://www.w3.org/2000/svg"
   xmlns="http://www.w3.org/2000/svg"
   xmlns:sodipodi="http://sodipodi.sourceforge.net/DTD/sodipodi-0.dtd"
   xmlns:inkscape="http://www.inkscape.org/namespaces/inkscape"
   height="511pt"
   viewBox="0 0 511.99876 511"
   width="511pt"
   version="1.1"
   id="svg6"
   sodipodi:docname="outgoing.svg"
   inkscape:version="0.92.5 (2060ec1f9f, 2020-04-08)">
  <metadata
     id="metadata12">
    <rdf:RDF>
      <cc:Work
         rdf:about="">
        <dc:format>image/svg+xml</dc:format>
        <dc:type
           rdf:resource="http://purl.org/dc/dcmitype/StillImage" />
      </cc:Work>
    </rdf:RDF>
  </metadata>
  <defs
     id="defs10" />
  <sodipodi:namedview
     pagecolor="#ffffff"
     bordercolor="#666666"
     borderopacity="1"
     objecttolerance="10"
     gridtolerance="10"
     guidetolerance="10"
     inkscape:pageopacity="0"
     inkscape:pageshadow="2"
     inkscape:window-width="1366"
     inkscape:window-height="649"
     id="namedview8"
     showgrid="false"
     inkscape:zoom="0.34637965"
     inkscape:cx="-199.20339"
     inkscape:cy="340.66667"
     inkscape:window-x="0"
     inkscape:window-y="28"
     inkscape:window-maximized="1"
     inkscape:current-layer="svg6" />
  <path
     d="m505.234375 386.511719c-.09375-.152344-.199219-.304688-.304687-.453125-1.546876-2.324219-77.214844-78.414063-77.214844-78.414063-16.101563-16.101562-41.847656-16.640625-58.609375-1.222656l-43.742188 40.230469c-6.234375 5.734375-15.695312 6.289062-22.496093 1.3125-53.015626-38.785156-99.554688-85.328125-138.335938-138.335938-4.972656-6.796875-4.421875-16.257812 1.3125-22.492187l40.234375-43.742188c15.417969-16.761719 14.878906-42.507812-1.222656-58.609375l-71.882813-71.882812c-8.839844-8.839844-21.0625-13.304688-33.511718-12.25-12.457032 1.054687-23.75 7.507812-30.980469 17.707031l-46.453125 65.554687c-15.203125 21.449219-22.796875 46.679688-21.964844 72.964844.828125 26.273438 9.992188 50.984375 26.496094 71.460938 76.273437 94.648437 162.941406 181.320312 257.601562 257.605468 20.476563 16.503907 45.1875 25.664063 71.457032 26.492188 1.296874.039062 2.589843.0625 3.878906.0625 24.882812 0 48.691406-7.578125 69.089844-22.023438l65.550781-46.457031c10.199219-7.230469 16.65625-18.519531 17.710937-30.976562.796875-9.4375-1.574218-18.734375-6.613281-26.53125zm-85.4375 91.554687c-18.730469 13.265625-40.742187 19.890625-63.699219 19.171875-22.9375-.722656-44.515625-8.722656-62.394531-23.132812-93.816406-75.609375-179.710937-161.503907-255.304687-255.308594-14.410157-17.878906-22.414063-39.457031-23.136719-62.398437-.722657-22.945313 5.90625-44.96875 19.171875-63.691407l24.878906-35.101562 12.113281 12.117187c1.484375 1.484375 3.429688 2.226563 5.378907 2.226563 1.945312 0 3.890624-.742188 5.375-2.226563 2.96875-2.972656 2.96875-7.785156 0-10.753906l-13.949219-13.949219 12.660156-17.863281c4.632813-6.535156 11.871094-10.671875 19.851563-11.347656.773437-.066406 1.539062-.097656 2.304687-.097656 7.167969 0 14.054687 2.832031 19.175781 7.949218l18.582032 18.585938-6.113282 6.113281c-2.972656 2.96875-2.972656 7.785156 0 10.753906 1.484375 1.484375 3.429688 2.226563 5.375 2.226563 1.945313 0 3.890625-.742188 5.375-2.226563l6.117188-6.113281 13.207031 13.203125-6.117187 6.117187c-2.96875 2.96875-2.96875 7.785157 0 10.753907 1.484374 1.484375 3.433593 2.226562 5.378906 2.226562 1.945312 0 3.890625-.742187 5.375-2.226562l6.117187-6.117188 18.582031 18.585938c10.320313 10.320312 10.664063 26.820312.785157 37.5625l-18.480469 20.089843-72.730469-72.734374c-2.972656-2.96875-7.785156-2.96875-10.753906 0-2.96875 2.972656-2.96875 7.785156 0 10.753906l73.179687 73.183594-11.445312 12.445312c-10.636719 11.5625-11.644531 29.128906-2.394531 41.769531 39.699219 54.269531 87.351562 101.921875 141.628906 141.628907 12.640625 9.25 30.207031 8.242187 41.769531-2.394532l12.449219-11.449218 106.789063 106.792968zm76.898437-66.308594c-.675781 7.984376-4.8125 15.222657-11.351562 19.855469l-17.859375 12.65625-108.175781-108.175781 20.089844-18.480469c10.640624-9.785156 26.921874-9.53125 37.257812.496094l-6.636719 6.636719c-2.96875 2.96875-2.96875 7.785156.003907 10.75 1.484374 1.488281 3.429687 2.230468 5.375 2.230468 1.945312 0 3.894531-.742187 5.378906-2.230468l6.640625-6.640625 13.207031 13.207031-6.640625 6.640625c-2.972656 2.972656-2.972656 7.785156 0 10.753906 1.484375 1.484375 3.429687 2.230469 5.375 2.230469s3.894531-.742188 5.378906-2.226562l6.640625-6.644532 13.207032 13.207032-6.640626 6.640624c-2.972656 2.972657-2.972656 7.785157 0 10.753907 1.484376 1.484375 3.429688 2.226562 5.375 2.226562 1.945313 0 3.894532-.742187 5.378907-2.226562l6.640625-6.640625 13.207031 13.207031-6.640625 6.640625c-2.96875 2.96875-2.96875 7.785156 0 10.753906 1.484375 1.484375 3.429688 2.226563 5.375 2.226563 1.949219 0 3.894531-.742188 5.378906-2.226563l3.539063-3.539062c.539062 2.574218.722656 5.234375.496093 7.917968zm0 0"
     id="path2" />
  <path
     d="m328.78125 259.390625c1.488281 1.488281 3.433594 2.230469 5.378906 2.230469 1.945313 0 3.890625-.742188 5.375-2.226563l101.617188-101.609375 26.003906 25.996094c2.140625 2.140625 5.347656 2.804688 8.164062 1.695312 2.816407-1.109374 4.707032-3.785156 4.808594-6.808593l1.917969-55.320313c.144531-4.195312-3.140625-7.714844-7.335937-7.859375-4.195313-.140625-7.71875 3.136719-7.863282 7.335938l-1.308594 37.835937-19.011718-19.003906c-2.96875-2.96875-7.78125-2.96875-10.75 0l-101.617188 101.605469-62.945312-62.941407 101.617187-101.617187c1.425781-1.425781 2.226563-3.359375 2.226563-5.378906 0-2.015625-.804688-3.949219-2.226563-5.375l-19.007812-19 115.722656-4.015625-1.644531 47.503906c-.144532 4.199219 3.140625 7.71875 7.335937 7.863281 4.207031.128907 7.714844-3.140625 7.863281-7.335937l1.925782-55.652344c.070312-2.105469-.734375-4.148438-2.222656-5.636719-1.492188-1.492187-3.542969-2.304687-5.640626-2.222656l-141.351562 4.90625c-3.027344.105469-5.703125 1.996094-6.8125 4.8125s-.441406 6.023437 1.699219 8.164063l26 25.992187-101.613281 101.613281c-2.96875 2.96875-2.96875 7.785156 0 10.753906zm0 0"
     id="path4"
     style="fill:#ffc400;fill-opacity:1" />
</svg>
